<svg width="39" height="39" viewBox="0 0 39 39" fill="none" xmlns="http://www.w3.org/2000/svg">
<path d="M1.7652 14.5274L1.76551 14.527L14.5988 1.22709C14.5988 1.22707 14.5988 1.22705 14.5988 1.22703C14.9443 0.869134 15.4204 0.666992 15.9179 0.666992C16.4153 0.666992 16.8915 0.869156 17.2369 1.22709L17.237 1.22714L23.4257 7.63685L20.8033 10.2079L16.2766 5.51441L15.9169 5.14149L15.557 5.51419L5.05702 16.3875L4.9167 16.5328V16.7348V31.7965V32.2965H5.4167H30.5834L30.5834 34.1298L30.5834 34.1323C30.5858 34.6202 30.3937 35.0888 30.0497 35.4346C29.7056 35.7804 29.2379 35.9748 28.75 35.9748H3.08336C2.07084 35.9748 1.25003 35.154 1.25003 34.1415V15.8015C1.25003 15.3261 1.43475 14.8692 1.7652 14.5274ZM37.5834 21.9748H19.9167V18.3082H37.5834V21.9748Z" fill="black" stroke="black"/>
</svg>
