<svg width="50" height="50" viewBox="0 0 50 50" fill="none" xmlns="http://www.w3.org/2000/svg">
<path d="M40.75 39C40.75 39.5083 40.5481 39.9958 40.1886 40.3553C39.8292 40.7147 39.3417 40.9167 38.8333 40.9167H8.16667C7.65834 40.9167 7.17082 40.7147 6.81138 40.3553C6.45193 39.9958 6.25 39.5083 6.25 39V18.8558C6.2498 18.5637 6.31635 18.2755 6.44457 18.0131C6.5728 17.7506 6.7593 17.521 6.98983 17.3417L22.3232 5.41616C22.6596 5.15443 23.0737 5.01233 23.5 5.01233C23.9263 5.01233 24.3404 5.15443 24.6768 5.41616L40.0102 17.3417C40.2407 17.521 40.4272 17.7506 40.5554 18.0131C40.6837 18.2755 40.7502 18.5637 40.75 18.8558V39ZM36.9167 37.0833V19.7912L23.5 9.35683L10.0833 19.7912V37.0833H36.9167Z" fill="black"/>
<circle cx="23.5" cy="21.7499" r="5.75" fill="black"/>
<circle cx="23.5" cy="31.3333" r="1.91667" fill="black"/>
<rect x="21.5833" y="40.9166" width="3.83333" height="21.0833" fill="black"/>
</svg>
